<svg id="Layer_1" data-name="Layer 1" xmlns="http://www.w3.org/2000/svg" viewBox="0 0 595.28 595.28">
    <title>Logo</title>
    <rect width="595.28" height="595.28" fill="#f0f2f4" />
    <path
        d="M429.68,321.28a18.2,18.2,0,0,0,21.62-17.15q.13-3.24.14-6.49c0-87.28-72.2-157.91-159.66-154.62C206.54,146.22,139.1,221.3,144.1,307a153.69,153.69,0,0,0,30.8,83.94A155.57,155.57,0,0,0,234,438.53a18.16,18.16,0,0,0,25.07-11.31l0-.08a18.18,18.18,0,0,0-9.67-21.74A119.07,119.07,0,0,1,180.2,297.64c0-65.54,53.33-118.79,118.62-118.14,63.09.64,115,52.32,116.22,115.77,0,2.52,0,5-.09,7.54a18.15,18.15,0,0,0,14.73,18.47Z"
        fill="#848c99" stroke="#000" stroke-miterlimit="10" stroke-width="0.5" />
    <path
        d="M400.44,384.72h0a18.18,18.18,0,0,0-24.07.58,116.86,116.86,0,0,1-60.55,29V212.5c0-10.57-8.14-19.13-18.19-19.13s-18.18,8.56-18.18,19.13V451.3a110.15,110.15,0,0,0,18.18,1.07A153,153,0,0,0,401,412.27,18.38,18.38,0,0,0,400.44,384.72Z"
        fill="#234182" stroke="#000" stroke-miterlimit="10" stroke-width="0.5" />
    <polygon points="394.35 362.26 394.62 361.52 415.16 369.23 414.89 369.97 394.35 362.26" />
    <polygon points="394.86 361.03 395.12 360.29 413.14 366.79 412.87 367.54 394.86 361.03" />
    <path d="M428.19,353.68a8.14,8.14,0,0,0-2-10.23l.49-.62a8.93,8.93,0,0,1,2.23,11.23Z" />
    <path d="M431.16,354.19a7.9,7.9,0,0,0-2-10l.49-.62a8.69,8.69,0,0,1,2.23,11.05Z" />
    <path d="M421.4,372.21a37.42,37.42,0,0,0,13.78-24.68l.79.1a38.23,38.23,0,0,1-14.08,25.2Z" />
    <polygon points="391.51 353.9 403.76 331.7 404.45 332.08 392.2 354.29 391.51 353.9" />
    <path
        d="M405.08,332.48a4.67,4.67,0,0,1,2.92-2.27,4.49,4.49,0,0,1,3.59.7l-.45.65a3.75,3.75,0,0,0-3-.58,3.86,3.86,0,0,0-2.41,1.89Z" />
    <path
        d="M403.76,331.7a6.12,6.12,0,0,1,3.92-2.9,5.94,5.94,0,0,1,4.73,1l-.45.65a5.16,5.16,0,0,0-4.1-.91,5.31,5.31,0,0,0-3.41,2.52Z" />
    <polygon points="392.77 354.61 405.08 332.49 405.77 332.87 393.46 355 392.77 354.61" />
    <path
        d="M392.42,358.23a4.58,4.58,0,0,1,.35-3.62l.69.39a3.81,3.81,0,0,0-.28,3,3.72,3.72,0,0,0,2,2.29l-.31.73a4.57,4.57,0,0,1-2.43-2.77Z" />
    <path
        d="M391.05,358.68a6,6,0,0,1,.46-4.78l.69.39a5.21,5.21,0,0,0-.4,4.14l0,0a5.2,5.2,0,0,0,2.88,3.08l-.32.73a6,6,0,0,1-3.31-3.55Z" />
    <polygon points="411.93 330.46 412.42 329.84 429.61 343.53 429.12 344.15 411.93 330.46" />
    <polygon points="411.06 331.51 411.55 330.89 426.65 342.83 426.16 343.45 411.06 331.51" />
    <path d="M424,375.62a41.65,41.65,0,0,0,15.31-27.51l.78.09a42.46,42.46,0,0,1-15.59,28Z" />
    <path d="M412.87,367.54l.27-.75a8,8,0,0,0,9.72-3.43l.69.39A8.79,8.79,0,0,1,412.87,367.54Z" />
    <path d="M414.89,370l.27-.74a8.05,8.05,0,0,0,9.66-3.8l.68.39A8.83,8.83,0,0,1,414.89,370Z" />
    <polygon points="422.86 363.36 428.19 353.68 428.88 354.06 423.55 363.75 422.86 363.36" />
    <polygon points="424.82 365.43 431.16 354.19 431.84 354.58 425.5 365.82 424.82 365.43" />
    <polygon points="427.09 362.42 427.44 361.71 429.99 363 429.63 363.71 427.09 362.42" />
    <polygon points="429.46 358.12 429.85 357.42 432.25 358.76 431.87 359.46 429.46 358.12" />
    <polygon points="421.11 372.44 421.77 371.91 424.96 375.9 424.35 376.4 421.11 372.44" />
    <polygon points="435.11 348.06 435.23 347.28 440.16 348.02 440.06 348.76 435.11 348.06" />
    <path d="M424.6,376.35l-.42.34a4.87,4.87,0,0,0,.42-.35Z" fill="#848c99" />
    <path d="M424.6,376.34a4.87,4.87,0,0,1-.42.35l-.48-.62.4-.34Z" fill="#848c99" />
    <path d="M421.91,373c-.11.11-.25.2-.38.31l-.48-.62.36-.31Z" fill="#848c99" />
    <path d="M423.7,376.07l.48.62-.18.16-3.24-4,.29-.23.48.62c.13-.11.27-.2.38-.31l2.19,2.75Z" fill="#848c99" />
    <path d="M439.69,349.22a42.36,42.36,0,0,1-15.09,27.12l-.5-.61a41.6,41.6,0,0,0,14.82-26.62Z" fill="#848c99" />
    <polygon points="394.35 362.01 414.81 369.68 414.54 370.44 394.04 362.73 394.35 362.01" fill="#848c99" />
    <path d="M414.81,369.68a8,8,0,0,0,9.65-3.8l.69.39a8.84,8.84,0,0,1-10.61,4.17Z" fill="#848c99" />
    <path d="M429.29,364.17,429,364c.16-.22.3-.45.44-.66l.24.12Z" fill="#848c99" />
    <path d="M429,364,427,363l.38-.7,2,1C429.25,363.55,429.11,363.78,429,364Z" fill="#848c99" />
    <polygon points="412.79 367.25 412.52 368 394.51 361.49 394.82 360.75 412.79 367.25" fill="#848c99" />
    <path d="M422.51,363.82l.69.39A8.81,8.81,0,0,1,412.52,368l.27-.75A8,8,0,0,0,422.51,363.82Z" fill="#848c99" />
    <polygon points="427.09 362.16 427.38 362.31 427 363.01 426.74 362.88 427.09 362.16" fill="#848c99" />
    <path d="M431.33,359.81a37.89,37.89,0,0,1-1.94,3.53l-2-1,2-3.57Z" fill="#848c99" />
    <path d="M431.91,359.22l-.39.69-.19-.1c.12-.24.24-.5.33-.73Z" fill="#848c99" />
    <path d="M429.41,358.74l.39-.7,1.86,1c-.09.23-.21.49-.33.73Z" fill="#848c99" />
    <path
        d="M431.66,359.08a37.29,37.29,0,0,0,3.1-10.56l.77.12A38.12,38.12,0,0,1,421.91,373l-.5-.62A37.58,37.58,0,0,0,429,364l.34.17.34-.71-.24-.12a37.89,37.89,0,0,0,1.94-3.53l.19.1.39-.69Z"
        fill="#848c99" />
    <polygon points="429.49 357.88 429.8 358.04 429.41 358.74 429.11 358.57 429.49 357.88" fill="#848c99" />
    <polygon
        points="430.82 354.67 431.49 355.03 429.8 358.04 429.49 357.88 429.11 358.57 429.41 358.74 427.38 362.31 427.09 362.16 426.74 362.88 427 363.01 425.15 366.27 424.46 365.88 430.8 354.66 430.82 354.67"
        fill="#848c99" />
    <path d="M438.92,349.11a41.6,41.6,0,0,1-14.82,26.62L421.91,373a38.12,38.12,0,0,0,13.62-24.34Z" fill="#848c99" />
    <polygon points="430.82 354.65 430.82 354.67 430.8 354.66 430.82 354.65" fill="#848c99" />
    <polygon points="428.53 354.52 423.2 364.21 422.51 363.82 427.84 354.13 428.53 354.52" fill="#848c99" />
    <path
        d="M392.83,358.47a3.79,3.79,0,0,1,.28-3l12.3-22.12a3.92,3.92,0,0,1,2.42-1.9,3.72,3.72,0,0,1,2.88.54l.07,0,15,11.9a8.13,8.13,0,0,1,2,10.22l-5.33,9.69a8,8,0,0,1-9.72,3.43l-18-6.5s0,0-.05,0A3.83,3.83,0,0,1,392.83,358.47Z"
        fill="#848c99" />
    <path d="M439.69,349.22l-.77-.11c0-.18.05-.37.07-.54l.78.09A5,5,0,0,1,439.69,349.22Z" fill="#848c99" />
    <path
        d="M439,348.57c0,.17,0,.36-.07.54l-3.39-.47a5,5,0,0,0,.08-.56l-.77-.1,0-.24,4.94.74-.11.74h0a5,5,0,0,0,.08-.56Z"
        fill="#848c99" />
    <path d="M394,362.71l.27-.74.08,0-.31.72Z" fill="#848c99" />
    <path d="M435.53,348.64l-.77-.12.08-.54.77.1A5,5,0,0,1,435.53,348.64Z" fill="#848c99" />
    <path d="M394.27,362l.08,0Z" fill="#848c99" />
    <path d="M394.51,361.49l.26-.75s0,0,.05,0Z" fill="#848c99" />
    <path d="M431.49,355l-.67-.36v0h0a7.9,7.9,0,0,0-2-10.05l.49-.62A8.68,8.68,0,0,1,431.49,355Z" fill="#848c99" />
    <path d="M427.84,354.13a8.13,8.13,0,0,0-2-10.22l.49-.63a9,9,0,0,1,2.23,11.24Z" fill="#848c99" />
    <path
        d="M392.42,355.06l.69.39a3.79,3.79,0,0,0-.28,3,3.83,3.83,0,0,0,1.94,2.27l-.26.75a4.63,4.63,0,0,1-2.43-2.77v0A4.56,4.56,0,0,1,392.42,355.06Z"
        fill="#848c99" />
    <polygon points="429.25 343.99 428.76 344.61 411.61 330.94 411.89 330.54 412.08 330.3 429.25 343.99"
        fill="#848c99" />
    <polygon points="405.41 333.33 393.11 355.45 392.42 355.06 404.72 332.94 405.41 333.33" fill="#848c99" />
    <path
        d="M391.85,354.75a5.25,5.25,0,0,0-.41,4.14l0,.05a5.22,5.22,0,0,0,2.81,3l-.27.74a6,6,0,0,1-3.29-3.52l0-.05a6.09,6.09,0,0,1,.47-4.78Z"
        fill="#848c99" />
    <polygon points="425.81 343.91 410.78 332.01 411.23 331.36 426.3 343.28 425.81 343.91" fill="#848c99" />
    <polygon points="404.1 332.55 391.86 354.75 391.16 354.36 403.4 332.16 404.1 332.55" fill="#848c99" />
    <polygon points="411.23 331.36 410.78 332.01 410.71 331.97 411.19 331.34 411.23 331.36" fill="#848c99" />
    <polygon points="411.89 330.54 411.61 330.94 411.58 330.91 411.89 330.54" fill="#848c99" />
    <path
        d="M407.65,330.67a4.48,4.48,0,0,1,3.54.67l-.48.63a3.72,3.72,0,0,0-2.88-.54,3.92,3.92,0,0,0-2.42,1.9l-.69-.39A4.66,4.66,0,0,1,407.65,330.67Z"
        fill="#848c99" />
    <path
        d="M404.1,332.55a5.28,5.28,0,0,1,3.41-2.52,5.2,5.2,0,0,1,4.07.88l0,0,17.15,13.67a7.9,7.9,0,0,1,2,10.05l-6.34,11.22a8,8,0,0,1-9.65,3.8L394.35,362l-.08,0a5.22,5.22,0,0,1-2.81-3l0-.05a5.25,5.25,0,0,1,.41-4.14Zm7.09-1.21a4.48,4.48,0,0,0-3.54-.67,4.66,4.66,0,0,0-2.93,2.27l-12.3,22.12a4.56,4.56,0,0,0-.35,3.63v0a4.63,4.63,0,0,0,2.43,2.77l18,6.51a8.81,8.81,0,0,0,10.68-3.79l5.33-9.69a9,9,0,0,0-2.23-11.24l-15.07-11.92Z"
        fill="#848c99" />
    <path
        d="M407.51,330a5.28,5.28,0,0,0-3.41,2.52l-.7-.39a6.11,6.11,0,0,1,3.94-2.9,5.92,5.92,0,0,1,4.72,1l-.17.25-.31.37A5.2,5.2,0,0,0,407.51,330Z"
        fill="#848c99" />
    <polygon points="394 362.73 394.27 361.99 414.81 369.69 414.54 370.44 394 362.73" />
    <polygon points="394.51 361.5 394.77 360.75 412.79 367.26 412.52 368 394.51 361.5" />
    <path d="M427.84,354.14a8.15,8.15,0,0,0-2-10.23l.49-.62a9,9,0,0,1,2.23,11.24Z" />
    <path d="M430.81,354.66a7.9,7.9,0,0,0-2-10l.49-.62a8.69,8.69,0,0,1,2.24,11Z" />
    <path d="M421.05,372.67A37.39,37.39,0,0,0,434.83,348l.79.1a38.23,38.23,0,0,1-14.08,25.2Z" />
    <polygon points="391.16 354.37 403.41 332.16 404.1 332.55 391.85 354.75 391.16 354.37" />
    <path
        d="M404.73,333a4.65,4.65,0,0,1,2.93-2.28,4.47,4.47,0,0,1,3.58.71l-.45.65a3.67,3.67,0,0,0-3-.58,3.79,3.79,0,0,0-2.41,1.89Z" />
    <path
        d="M403.41,332.16a6.12,6.12,0,0,1,3.93-2.9,6,6,0,0,1,4.72,1l-.45.65a5.2,5.2,0,0,0-4.1-.9,5.3,5.3,0,0,0-3.41,2.51Z" />
    <polygon points="392.42 355.07 404.73 332.95 405.42 333.34 393.11 355.46 392.42 355.07" />
    <path
        d="M392.07,358.69a4.58,4.58,0,0,1,.35-3.62l.69.39a3.86,3.86,0,0,0,1.71,5.31l-.31.72a4.53,4.53,0,0,1-2.43-2.76Z" />
    <path
        d="M390.7,359.14a6.06,6.06,0,0,1,.46-4.77l.69.38a5.27,5.27,0,0,0-.4,4.15l0,0a5.18,5.18,0,0,0,2.88,3.07l-.32.73a6,6,0,0,1-3.31-3.55Z" />
    <polygon points="411.58 330.92 412.07 330.3 429.26 344 428.77 344.62 411.58 330.92" />
    <polygon points="410.71 331.97 411.2 331.35 426.3 343.29 425.81 343.92 410.71 331.97" />
    <path d="M423.7,376.08A41.68,41.68,0,0,0,439,348.57l.78.1a42.51,42.51,0,0,1-15.59,28Z" />
    <path d="M412.52,368l.27-.74a8,8,0,0,0,9.72-3.44l.69.39A8.76,8.76,0,0,1,412.52,368Z" />
    <path d="M414.54,370.44l.27-.75a8,8,0,0,0,9.66-3.8l.69.39A8.84,8.84,0,0,1,414.54,370.44Z" />
    <polygon points="422.51 363.82 427.84 354.14 428.53 354.53 423.2 364.21 422.51 363.82" />
    <polygon points="424.47 365.89 430.81 354.66 431.5 355.05 425.15 366.28 424.47 365.89" />
    <polygon points="426.74 362.88 427.1 362.17 429.64 363.47 429.28 364.18 426.74 362.88" />
    <polygon points="429.12 358.58 429.5 357.89 431.9 359.23 431.52 359.92 429.12 358.58" />
    <polygon points="420.76 372.9 421.42 372.37 424.61 376.36 424 376.86 420.76 372.9" />
    <polygon points="434.76 348.53 434.88 347.74 439.81 348.49 439.71 349.22 434.76 348.53" />
</svg>